<svg width="900" height="260" viewBox="0 0 900 260" fill="none" xmlns="http://www.w3.org/2000/svg">
  <defs>
    <linearGradient id="bg" x1="40" y1="20" x2="240" y2="240" gradientUnits="userSpaceOnUse">
      <stop stop-color="#8B5CF6"/>
      <stop offset="1" stop-color="#06B6D4"/>
    </linearGradient>

    <linearGradient id="glass" x1="80" y1="60" x2="190" y2="190" gradientUnits="userSpaceOnUse">
      <stop stop-color="white" stop-opacity="0.95"/>
      <stop offset="1" stop-color="white" stop-opacity="0.65"/>
    </linearGradient>

    <linearGradient id="textgrad" x1="300" y1="60" x2="700" y2="200" gradientUnits="userSpaceOnUse">
      <stop stop-color="#0F172A"/>
      <stop offset="1" stop-color="#334155"/>
    </linearGradient>
  </defs>

  <!-- Logo Background -->
  <rect x="20" y="20" width="220" height="220" rx="60" fill="url(#bg)"/>

  <!-- Resume Card -->
  <rect x="70" y="50" width="110" height="150" rx="28" fill="url(#glass)"/>

  <!-- Fold -->
  <path d="M150 50H180V80L150 50Z" fill="#C4B5FD" fill-opacity="0.85"/>

  <!-- Resume Lines -->
  <rect x="92" y="95" width="68" height="10" rx="5" fill="#7C3AED"/>
  <rect x="92" y="122" width="55" height="8" rx="4" fill="#A78BFA"/>
  <rect x="92" y="145" width="62" height="8" rx="4" fill="#A78BFA"/>
  <rect x="92" y="168" width="45" height="8" rx="4" fill="#A78BFA"/>

  <!-- AI Spark -->
  <circle cx="190" cy="190" r="28" fill="#0F172A"/>
  <path d="M190 172L195 184L208 189L195 194L190 206L185 194L172 189L185 184L190 172Z" fill="#22D3EE"/>

  <!-- Brand Name -->
  <text x="290" y="125" font-family="Inter, Arial, sans-serif" font-size="58" font-weight="700" fill="url(#textgrad)">
    ResumeForge
  </text>

  <!-- AI Text -->
  <text x="295" y="178" font-family="Inter, Arial, sans-serif" font-size="34" font-weight="700" letter-spacing="10" fill="#06B6D4">
    AI
  </text>

  <!-- Tagline -->
 
</svg>
